HIERARCHY
ROOT Hips
{
	OFFSET	0.00	0.00	0.00
	CHANNELS 6 Xposition Yposition Zposition Zrotation Xrotation Yrotation
	JOINT LeftUpLeg
	{
		OFFSET	 0.126116	-0.014019	-0.065224
		CHANNELS 3 Zrotation Xrotation Yrotation
		JOINT LeftLeg
		{
			OFFSET	 0.000000	 0.000000	 0.569914
			CHANNELS 3 Zrotation Xrotation Yrotation
			JOINT LeftFoot
			{
				OFFSET	 0.000000	 0.000000	 0.544423
				CHANNELS 3 Zrotation Xrotation Yrotation
				JOINT LeftToeBase
				{
					OFFSET	 0.000000	 0.000000	 0.207117
					CHANNELS 3 Zrotation Xrotation Yrotation
					End Site
					{
						OFFSET	 0.000000	 0.000000	 0.207117
					}
				}
			}
		}
	}
	JOINT RightUpLeg
	{
		OFFSET	-0.124023	-0.008373	-0.065224
		CHANNELS 3 Zrotation Xrotation Yrotation
		JOINT RightLeg
		{
			OFFSET	 0.000000	 0.000000	 0.570047
			CHANNELS 3 Zrotation Xrotation Yrotation
			JOINT RightFoot
			{
				OFFSET	 0.000000	 0.000000	 0.544354
				CHANNELS 3 Zrotation Xrotation Yrotation
				JOINT RightToeBase
				{
					OFFSET	 0.000000	 0.000000	 0.207540
					CHANNELS 3 Zrotation Xrotation Yrotation
					End Site
					{
						OFFSET	 0.000000	 0.000000	 0.207540
					}
				}
			}
		}
	}
	JOINT Spine
	{
		OFFSET	 0.000184	-0.007763	 0.117403
		CHANNELS 3 Zrotation Xrotation Yrotation
		JOINT Spine1
		{
			OFFSET	 0.000000	 0.000000	 0.137269
			CHANNELS 3 Zrotation Xrotation Yrotation
			JOINT Spine2
			{
				OFFSET	 0.000000	 0.000000	 0.156879
				CHANNELS 3 Zrotation Xrotation Yrotation
				JOINT LeftShoulder
				{
					OFFSET	 0.080501	-0.002496	 0.160144
					CHANNELS 3 Zrotation Xrotation Yrotation
					JOINT LeftArm
					{
						OFFSET	 0.000000	 0.000000	 0.164363
						CHANNELS 3 Zrotation Xrotation Yrotation
						JOINT LeftForeArm
						{
							OFFSET	 0.000000	 0.000000	 0.364576
							CHANNELS 3 Zrotation Xrotation Yrotation
							JOINT LeftHand
							{
								OFFSET	 0.000000	 0.000000	 0.360812
								CHANNELS 3 Zrotation Xrotation Yrotation
								JOINT LeftHandIndex1
								{
									OFFSET	 0.000000	 0.000000	 0.086006
									CHANNELS 3 Zrotation Xrotation Yrotation
									JOINT LeftHandIndex2
									{
										OFFSET	 0.000000	 0.000000	 0.047236
										CHANNELS 3 Zrotation Xrotation Yrotation
										JOINT LeftHandIndex3
										{
											OFFSET	-0.004284	-0.000551	 0.038166
											CHANNELS 3 Zrotation Xrotation Yrotation
											End Site
											{
												OFFSET	-0.004284	-0.000551	 0.038166
											}
										}
									}
								}
							}
						}
					}
				}
				JOINT Neck
				{
					OFFSET	 0.000000	 0.000000	 0.176489
					CHANNELS 3 Zrotation Xrotation Yrotation
					JOINT Head
					{
						OFFSET	 0.000000	-0.001747	 0.077940
						CHANNELS 3 Zrotation Xrotation Yrotation
						End Site
						{
							OFFSET	 0.000000	-0.001747	 0.077940
						}
					}
				}
				JOINT RightShoulder
				{
					OFFSET	-0.080363	 0.000306	 0.159706
					CHANNELS 3 Zrotation Xrotation Yrotation
					JOINT RightArm
					{
						OFFSET	 0.000000	 0.000000	 0.164196
						CHANNELS 3 Zrotation Xrotation Yrotation
						JOINT RightForeArm
						{
							OFFSET	 0.000000	 0.000000	 0.365611
							CHANNELS 3 Zrotation Xrotation Yrotation
							JOINT RightHand
							{
								OFFSET	 0.000000	 0.000000	 0.360648
								CHANNELS 3 Zrotation Xrotation Yrotation
								JOINT RightHandIndex1
								{
									OFFSET	 0.000000	 0.000000	 0.069977
									CHANNELS 3 Zrotation Xrotation Yrotation
									JOINT RightHandIndex2
									{
										OFFSET	 0.000000	 0.000000	 0.052305
										CHANNELS 3 Zrotation Xrotation Yrotation
										JOINT RightHandIndex3
										{
											OFFSET	 0.009002	-0.000782	 0.042196
											CHANNELS 3 Zrotation Xrotation Yrotation
											End Site
											{
												OFFSET	 0.009002	-0.000782	 0.042196
											}
										}
									}
								}
							}
						}
					}
				}
			}
		}
	}
}
MOTION
Frames:    10
Frame Time: 0.03333334
-0.000388	 0.019929	 1.264991	 0.003723	 0.009091	-0.052488	-13.602650	-4.004372	-179.890100	 1.394240	-17.082240	-1.012957	-5.386413	 74.194220	-0.954568	-2.385833	 28.452760	 0.000004	 13.480320	-4.437216	-179.963000	-1.373638	-17.552390	 1.023469	 5.340764	 74.247880	 0.839909	 2.384658	 28.388730	 0.000004	 1.261323	 2.730172	 0.001312	 0.654668	 3.623985	 0.330523	-1.967322	-4.609570	-0.463433	-91.776120	 78.527450	 180.000000	 59.784300	 41.715720	-44.770810	-7.614523	 5.009961	-12.633730	-30.177150	-18.502940	-4.480757	-2.635965	 4.993658	 6.788941	-5.165319	 0.784187	 3.516649	-5.225038	 0.466231	 0.424329	-0.000002	-3.783157	-0.089647	-1.901971	 5.053226	 0.083920	 89.782190	 78.203870	 179.999900	 5.423820	 13.348250	 95.745570	-34.169570	-2.272632	 6.759430	 1.422042	-18.960500	-6.467481	 6.112037	 4.509576	-0.364401	 4.968462	 1.518543	-9.347576	 5.168945	 0.703820	 2.021906
-0.000396	 0.018974	 1.265026	 0.003724	 0.009089	-0.052472	-13.627680	-3.976290	-179.886800	 1.394875	-17.047730	-1.010782	-5.369676	 74.188610	-0.972484	-2.385833	 28.452760	 0.000004	 13.503060	-4.356139	-179.973900	-1.374880	-17.485790	 1.019333	 5.294624	 74.263760	 0.889922	 2.384658	 28.388730	 0.000004	 1.261167	 2.730794	 0.001298	 0.654567	 3.621850	 0.330540	-1.967039	-4.606847	-0.463323	-91.776170	 78.527490	 180.000000	 59.799010	 41.697200	-44.771170	-7.613788	 5.012823	-12.641160	-30.178800	-18.539840	-4.481564	-2.635965	 4.993658	 6.788941	-5.165319	 0.784187	 3.516649	-5.225038	 0.466231	 0.424329	-0.000002	-3.783157	-0.089647	-1.901736	 5.054517	 0.083932	 89.782180	 78.203890	 179.999900	 5.439526	 13.488120	 95.764600	-34.270570	-2.289271	 6.769014	 1.410693	-19.077410	-6.517763	 6.112037	 4.509576	-0.364401	 4.968462	 1.518543	-9.347576	 5.168945	 0.703820	 2.021906
-0.000407	 0.017530	 1.265079	 0.003727	 0.009085	-0.052472	-13.626790	-3.933595	-179.884900	 1.395854	-16.994380	-1.007428	-5.345261	 74.178530	-0.998544	-2.385833	 28.452760	 0.000004	 13.498740	-4.233234	-179.987200	-1.376793	-17.382870	 1.012951	 5.224860	 74.285300	 0.965400	 2.384658	 28.388730	 0.000004	 1.260999	 2.731430	 0.001294	 0.654459	 3.619661	 0.330541	-1.966734	-4.604064	-0.463194	-91.776200	 78.527450	-180.000000	 59.834290	 41.670380	-44.795250	-7.613833	 5.012239	-12.639600	-30.185400	-18.580640	-4.483145	-2.635965	 4.993658	 6.788941	-5.165319	 0.784187	 3.516649	-5.225038	 0.466231	 0.424329	-0.000002	-3.783157	-0.089647	-1.901499	 5.055847	 0.083943	 89.782140	 78.203900	 180.000000	 5.462901	 13.654480	 95.782210	-34.381000	-2.310434	 6.788039	 1.410993	-19.195940	-6.569705	 6.112037	 4.509576	-0.364401	 4.968462	 1.518543	-9.347576	 5.168945	 0.703820	 2.021906
-0.000417	 0.016062	 1.265127	 0.003728	 0.009081	-0.052433	-13.625870	-3.892034	-179.882900	 1.396776	-16.943930	-1.004254	-5.321509	 74.170140	-1.023908	-2.385833	 28.452760	 0.000004	 13.494400	-4.109320	 179.999100	-1.378694	-17.280080	 1.006577	 5.154277	 74.308010	 1.041759	 2.384658	 28.388730	 0.000004	 1.260826	 2.732072	 0.001270	 0.654353	 3.617451	 0.330440	-1.966418	-4.601248	-0.463027	-91.776170	 78.527450	 180.000000	 59.894710	 41.639980	-44.849250	-7.614193	 5.011010	-12.636440	-30.197150	-18.622340	-4.485582	-2.635965	 4.993658	 6.788941	-5.165319	 0.784187	 3.516649	-5.225038	 0.466231	 0.424329	-0.000002	-3.783157	-0.089647	-1.901245	 5.057182	 0.083954	 89.782200	 78.203920	 179.999900	 5.473245	 13.850800	 95.793890	-34.500980	-2.335767	 6.815248	 1.429097	-19.290120	-6.617074	 6.112037	 4.509576	-0.364401	 4.968462	 1.518543	-9.347576	 5.168945	 0.703820	 2.021906
-0.000422	 0.014535	 1.265164	 0.003730	 0.009077	-0.052382	-13.624940	-3.853276	-179.880400	 1.397574	-16.900600	-1.001531	-5.299455	 74.166050	-1.047569	-2.385833	 28.452760	 0.000004	 13.489920	-3.984348	 179.984700	-1.380515	-17.180730	 1.000425	 5.082753	 74.335210	 1.119119	 2.384658	 28.388730	 0.000004	 1.260639	 2.732735	 0.001240	 0.654233	 3.615173	 0.330429	-1.966089	-4.598341	-0.462883	-91.776250	 78.527470	-180.000000	 59.986180	 41.612860	-44.946270	-7.614633	 5.009139	-12.631630	-30.214960	-18.662060	-4.488968	-2.635965	 4.993658	 6.788941	-5.165319	 0.784187	 3.516649	-5.225038	 0.466231	 0.424329	-0.000002	-3.783157	-0.089647	-1.900976	 5.058601	 0.083966	 89.782170	 78.203890	 179.999900	 5.434469	 14.036570	 95.771080	-34.621380	-2.371430	 6.871400	 0.922883	-19.157980	-6.631277	 6.112037	 4.509576	-0.364401	 4.968462	 1.518543	-9.347576	 5.168945	 0.703820	 2.021906
-0.000412	 0.013087	 1.265147	 0.003727	 0.009073	-0.052382	-13.624010	-3.834391	-179.876500	 1.397655	-16.896270	-1.001259	-5.288642	 74.180830	-1.059477	-2.385833	 28.452760	 0.000004	 13.485720	-3.883471	 179.969800	-1.381591	-17.121740	 0.996773	 5.024446	 74.378330	 1.182490	 2.384658	 28.388730	 0.000004	 1.260462	 2.733361	 0.001238	 0.654124	 3.613025	 0.330415	-1.965763	-4.595611	-0.462756	-91.776160	 78.527470	 180.000000	 60.105070	 41.600150	-45.092410	-7.615616	 5.004961	-12.620770	-30.236680	-18.691560	-4.492909	-2.635965	 4.993658	 6.788941	-5.165319	 0.784187	 3.516649	-5.225038	 0.466231	 0.424329	-0.000002	-3.783157	-0.089647	-1.900685	 5.059874	 0.083974	 89.782200	 78.203890	 179.999900	 5.319987	 14.422690	 95.912040	-34.512550	-2.262867	 6.600324	 0.190116	-19.012910	-6.607419	 6.112037	 4.509576	-0.364401	 4.968462	 1.518543	-9.347576	 5.168945	 0.703820	 2.021906
-0.000382	 0.011468	 1.265020	 0.003729	 0.009069	-0.052364	-13.622900	-3.849297	-179.869300	 1.396382	-16.965730	-1.005625	-5.297052	 74.235260	-1.051446	-2.385833	 28.452760	 0.000004	 13.481100	-3.806659	 179.950500	-1.381468	-17.128420	 0.997187	 4.978808	 74.462810	 1.232974	 2.384658	 28.388730	 0.000004	 1.260249	 2.734053	 0.001226	 0.653991	 3.610636	 0.330407	-1.965385	-4.592575	-0.462609	-91.776180	 78.527490	 180.000000	 60.282670	 41.609380	-45.336190	-7.617810	 4.995097	-12.595410	-30.266460	-18.709380	-4.497925	-2.635965	 4.993658	 6.788941	-5.165319	 0.784187	 3.516649	-5.225038	 0.466231	 0.424329	-0.000002	-3.783157	-0.089647	-1.900381	 5.061304	 0.083984	 89.782070	 78.203900	-180.000000	 5.103224	 15.211830	 96.476370	-34.018640	-1.846366	 5.548993	-0.470984	-19.011440	-6.557602	 6.112037	 4.509576	-0.364401	 4.968462	 1.518543	-9.347576	 5.168945	 0.703820	 2.021906
-0.000356	 0.010089	 1.264960	 0.003730	 0.009066	-0.052375	-13.622000	-3.845993	-179.864400	 1.395904	-16.991740	-1.007261	-5.295097	 74.264630	-1.054119	-2.385833	 28.452760	 0.000004	 13.477140	-3.724626	 179.935500	-1.381987	-17.099990	 0.995433	 4.930257	 74.517400	 1.285965	 2.384658	 28.388730	 0.000004	 1.260063	 2.734646	 0.001230	 0.653877	 3.608594	 0.330378	-1.965056	-4.589979	-0.462476	-91.776160	 78.527470	 180.000000	 60.472520	 41.637640	-45.611600	-7.620052	 4.984218	-12.567440	-30.296480	-18.706420	-4.502799	-2.635965	 4.993658	 6.788941	-5.165319	 0.784187	 3.516649	-5.225038	 0.466231	 0.424329	-0.000002	-3.783157	-0.089647	-1.900135	 5.062557	 0.083994	 89.782040	 78.203890	-180.000000	 4.605685	 16.170080	 96.096450	-33.178330	-1.934092	 6.106801	-0.680474	-19.216640	-6.511751	 6.112037	 4.509576	-0.364401	 4.968462	 1.518543	-9.347576	 5.168945	 0.703820	 2.021906
-0.000355	 0.008533	 1.265211	 0.003729	 0.009058	-0.052327	-13.621200	-3.734541	-179.867900	 1.399435	-16.798450	-0.995114	-5.231576	 74.184100	-1.120867	-2.385833	 28.452760	 0.000004	 13.472690	-3.521739	 179.926900	-1.386622	-16.842930	 0.979565	 4.814354	 74.465550	 1.409196	 2.384658	 28.388730	 0.000004	 1.259845	 2.735326	 0.001204	 0.653744	 3.606267	 0.330356	-1.964673	-4.587005	-0.462318	-91.776260	 78.527470	-180.000000	 60.737590	 41.691970	-46.007050	-7.623121	 4.971039	-12.533470	-30.332110	-18.673940	-4.508123	-2.635965	 4.993658	 6.788941	-5.165319	 0.784187	 3.516649	-5.225038	 0.466231	 0.424329	-0.000002	-3.783157	-0.089647	-1.899797	 5.063962	 0.084003	 89.782120	 78.203870	 180.000000	 2.656333	 17.476610	 94.731230	-31.675650	-2.342019	 8.108043	-0.080546	-19.799630	-6.452840	 6.112037	 4.509576	-0.364401	 4.968462	 1.518543	-9.347576	 5.168945	 0.703820	 2.021906
-0.000383	 0.006855	 1.265858	 0.003737	 0.009063	-0.052323	-13.620620	-3.482666	-179.882500	 1.408010	-16.317830	-0.965017	-5.091059	 73.958320	-1.267830	-2.385833	 28.452760	 0.000004	 13.468040	-3.166595	 179.928300	-1.396356	-16.287560	 0.945420	 4.617937	 74.269080	 1.616352	 2.384658	 28.388730	 0.000004	 1.259588	 2.736084	 0.001202	 0.653586	 3.603663	 0.330357	-1.964241	-4.583690	-0.462167	-91.776180	 78.527470	 180.000000	 61.107910	 41.789070	-46.583820	-7.628584	 4.946820	-12.471140	-30.369140	-18.589440	-4.513066	-2.635965	 4.993658	 6.788941	-5.165319	 0.784187	 3.516649	-5.225038	 0.466231	 0.424329	-0.000002	-3.783157	-0.089647	-1.899427	 5.065573	 0.084013	 89.782100	 78.203890	 180.000000	-2.176113	 19.305380	 95.305140	-29.832860	-1.484862	 5.863040	 1.389092	-20.661700	-6.300848	 6.112037	 4.509576	-0.364401	 4.968462	 1.518543	-9.347576	 5.168945	 0.703820	 2.021906
